<?xml version="1.0" encoding="utf-8"?>
<svg xmlns="http://www.w3.org/2000/svg" viewBox="0 0 512 512">
  <defs>
    <linearGradient id="bg" x1="0%" y1="0%" x2="100%" y2="100%">
      <stop offset="0%" style="stop-color:#7c3aed;stop-opacity:1" />
      <stop offset="100%" style="stop-color:#a855f7;stop-opacity:1" />
    </linearGradient>
    <linearGradient id="flame" x1="0%" y1="100%" x2="0%" y2="0%">
      <stop offset="0%" style="stop-color:#f59e0b;stop-opacity:1" />
      <stop offset="60%" style="stop-color:#ef4444;stop-opacity:1" />
      <stop offset="100%" style="stop-color:#ec4899;stop-opacity:1" />
    </linearGradient>
  </defs>
  <!-- Rounded square background -->
  <rect x="16" y="16" width="480" height="480" rx="96" ry="96" fill="url(#bg)"/>
  
  <!-- Flame/trending icon above JB -->
  <g transform="translate(256, 120) scale(1.1)">
    <!-- Outer flame -->
    <path d="M 0 -52 C -8 -40 -28 -16 -28 8 C -28 26 -16 38 0 42 C 16 38 28 26 28 8 C 28 -16 8 -40 0 -52 Z" 
          fill="url(#flame)" opacity="0.9"/>
    <!-- Inner flame -->
    <path d="M 0 -22 C -4 -14 -14 0 -14 12 C -14 22 -8 28 0 30 C 8 28 14 22 14 12 C 14 0 4 -14 0 -22 Z" 
          fill="#fbbf24" opacity="0.95"/>
  </g>
  
  <!-- JB text — bold and modern -->
  <text x="256" y="350" text-anchor="middle" font-family="Arial,Helvetica,sans-serif" 
        font-size="180" font-weight="900" fill="white" letter-spacing="-6">JB</text>
  
  <!-- Subtle tagline line -->
  <rect x="136" y="375" width="240" height="4" rx="2" fill="white" opacity="0.4"/>
</svg>